<svg width="512" height="512" viewBox="0 0 512 512" fill="none" xmlns="http://www.w3.org/2000/svg">
  <!-- Background with gradient -->
  <defs>
    <linearGradient id="bg" x1="0%" y1="0%" x2="100%" y2="100%">
      <stop offset="0%" style="stop-color:#1f2937"/>
      <stop offset="100%" style="stop-color:#111827"/>
    </linearGradient>
  </defs>
  <rect width="512" height="512" rx="112" fill="url(#bg)"/>
  
  <!-- Sparkles icon - scaled up from 24px viewBox -->
  <g transform="translate(112, 112) scale(12)" fill="none" stroke="#f8fafc" stroke-width="2" stroke-linecap="round" stroke-linejoin="round">
    <!-- Center sparkle diamond (original Lucide path) -->
    <path d="m12 3-1.912 5.813a2 2 0 0 1-1.275 1.275L3 12l5.813 1.912a2 2 0 0 1 1.275 1.275L12 21l1.912-5.813a2 2 0 0 1 1.275-1.275L21 12l-5.813-1.912a2 2 0 0 1-1.275-1.275L12 3Z"/>
    <!-- Top-right plus (moved from top-left) -->
    <path d="M19 3v4"/>
    <path d="M17 5h4"/>
    <!-- Bottom-left circle -->
    <circle cx="5" cy="19" r="1.5" fill="#f8fafc" stroke="none"/>
  </g>
</svg>
